<svg width="192" height="192" viewBox="0 0 192 192" fill="none" xmlns="http://www.w3.org/2000/svg">
  <circle cx="96" cy="96" r="96" fill="#F3F4F6" />
  <path
    d="M96 64C78.3269 64 64 78.3269 64 96C64 113.673 78.3269 128 96 128C113.673 128 128 113.673 128 96C128 78.3269 113.673 64 96 64ZM96 120C82.7452 120 72 109.255 72 96C72 82.7452 82.7452 72 96 72C109.255 72 120 82.7452 120 96C120 109.255 109.255 120 96 120Z"
    fill="#D1D5DB"
  />
  <path
    d="M96 80C89.3726 80 84 85.3726 84 92C84 98.6274 89.3726 104 96 104C102.627 104 108 98.6274 108 92C108 85.3726 102.627 80 96 80ZM96 96C93.7909 96 92 94.2091 92 92C92 89.7909 93.7909 88 96 88C98.2091 88 100 89.7909 100 92C100 94.2091 98.2091 96 96 96Z"
    fill="#9CA3AF"
  />
  <path
    d="M96 108C86.0589 108 78 116.059 78 126C78 127.105 78.8954 128 80 128H112C113.105 128 114 127.105 114 126C114 116.059 105.941 108 96 108Z"
    fill="#9CA3AF"
  />
</svg> 